<svg id="visual" viewBox="0 0 960 540" width="960" height="540" xmlns="http://www.w3.org/2000/svg" xmlns:xlink="http://www.w3.org/1999/xlink" version="1.1"><rect x="0" y="0" width="960" height="540" fill="#001220"></rect><defs><linearGradient id="grad1_0" x1="43.8%" y1="0%" x2="100%" y2="100%"><stop offset="14.444444444444446%" stop-color="#fbae3c" stop-opacity="1"></stop><stop offset="85.55555555555554%" stop-color="#fbae3c" stop-opacity="1"></stop></linearGradient></defs><defs><linearGradient id="grad1_1" x1="43.8%" y1="0%" x2="100%" y2="100%"><stop offset="14.444444444444446%" stop-color="#fbae3c" stop-opacity="1"></stop><stop offset="85.55555555555554%" stop-color="#96446e" stop-opacity="1"></stop></linearGradient></defs><defs><linearGradient id="grad1_2" x1="43.8%" y1="0%" x2="100%" y2="100%"><stop offset="14.444444444444446%" stop-color="#001220" stop-opacity="1"></stop><stop offset="85.55555555555554%" stop-color="#96446e" stop-opacity="1"></stop></linearGradient></defs><defs><linearGradient id="grad2_0" x1="0%" y1="0%" x2="56.3%" y2="100%"><stop offset="14.444444444444446%" stop-color="#fbae3c" stop-opacity="1"></stop><stop offset="85.55555555555554%" stop-color="#fbae3c" stop-opacity="1"></stop></linearGradient></defs><defs><linearGradient id="grad2_1" x1="0%" y1="0%" x2="56.3%" y2="100%"><stop offset="14.444444444444446%" stop-color="#96446e" stop-opacity="1"></stop><stop offset="85.55555555555554%" stop-color="#fbae3c" stop-opacity="1"></stop></linearGradient></defs><defs><linearGradient id="grad2_2" x1="0%" y1="0%" x2="56.3%" y2="100%"><stop offset="14.444444444444446%" stop-color="#96446e" stop-opacity="1"></stop><stop offset="85.55555555555554%" stop-color="#001220" stop-opacity="1"></stop></linearGradient></defs><g transform="translate(960, 0)"><path d="M0 297C-36.3 286.5 -72.6 276.1 -109.1 263.3C-145.5 250.6 -182.2 235.5 -210 210C-237.8 184.5 -256.8 148.5 -269.8 111.7C-282.8 75 -289.9 37.5 -297 0L0 0Z" fill="#3d3056"></path><path d="M0 198C-24.2 191 -48.4 184 -72.7 175.5C-97 167 -121.5 157 -140 140C-158.5 123 -171.2 99 -179.8 74.5C-188.5 50 -193.3 25 -198 0L0 0Z" fill="#e1685e"></path><path d="M0 99C-12.1 95.5 -24.2 92 -36.4 87.8C-48.5 83.5 -60.7 78.5 -70 70C-79.3 61.5 -85.6 49.5 -89.9 37.2C-94.3 25 -96.6 12.5 -99 0L0 0Z" fill="#fbae3c"></path></g><g transform="translate(0, 540)"><path d="M0 -297C40.4 -294.1 80.7 -291.3 113.7 -274.4C146.6 -257.5 172 -226.6 198 -198C224 -169.4 250.4 -143.2 267 -110.6C283.6 -78 290.3 -39 297 0L0 0Z" fill="#3d3056"></path><path d="M0 -198C26.9 -196.1 53.8 -194.2 75.8 -182.9C97.7 -171.7 114.7 -151 132 -132C149.3 -112.9 166.9 -95.5 178 -73.7C189.1 -52 193.5 -26 198 0L0 0Z" fill="#e1685e"></path><path d="M0 -99C13.5 -98 26.9 -97.1 37.9 -91.5C48.9 -85.8 57.3 -75.5 66 -66C74.7 -56.5 83.5 -47.7 89 -36.9C94.5 -26 96.8 -13 99 0L0 0Z" fill="#fbae3c"></path></g></svg>