<svg id="visual" viewBox="0 0 540 960" width="540" height="960" xmlns="http://www.w3.org/2000/svg" xmlns:xlink="http://www.w3.org/1999/xlink" version="1.1"><rect x="0" y="0" width="540" height="960" fill="#001220"></rect><defs><linearGradient id="grad1_0" x1="0%" y1="0%" x2="100%" y2="100%"><stop offset="30%" stop-color="#fbae3c" stop-opacity="1"></stop><stop offset="70%" stop-color="#fbae3c" stop-opacity="1"></stop></linearGradient></defs><defs><linearGradient id="grad1_1" x1="0%" y1="0%" x2="100%" y2="100%"><stop offset="30%" stop-color="#fbae3c" stop-opacity="1"></stop><stop offset="70%" stop-color="#96446e" stop-opacity="1"></stop></linearGradient></defs><defs><linearGradient id="grad1_2" x1="0%" y1="0%" x2="100%" y2="100%"><stop offset="30%" stop-color="#001220" stop-opacity="1"></stop><stop offset="70%" stop-color="#96446e" stop-opacity="1"></stop></linearGradient></defs><defs><linearGradient id="grad2_0" x1="0%" y1="0%" x2="100%" y2="100%"><stop offset="30%" stop-color="#fbae3c" stop-opacity="1"></stop><stop offset="70%" stop-color="#fbae3c" stop-opacity="1"></stop></linearGradient></defs><defs><linearGradient id="grad2_1" x1="0%" y1="0%" x2="100%" y2="100%"><stop offset="30%" stop-color="#96446e" stop-opacity="1"></stop><stop offset="70%" stop-color="#fbae3c" stop-opacity="1"></stop></linearGradient></defs><defs><linearGradient id="grad2_2" x1="0%" y1="0%" x2="100%" y2="100%"><stop offset="30%" stop-color="#96446e" stop-opacity="1"></stop><stop offset="70%" stop-color="#001220" stop-opacity="1"></stop></linearGradient></defs><g transform="translate(540, 0)"><path d="M0 297C-34.8 283.4 -69.5 269.9 -106.8 257.8C-144 245.7 -183.7 235 -210 210C-236.3 185 -249.2 145.7 -261.5 108.3C-273.7 70.9 -285.4 35.5 -297 0L0 0Z" fill="#3d3056"></path><path d="M0 198C-23.2 189 -46.4 179.9 -71.2 171.8C-96 163.8 -122.5 156.7 -140 140C-157.5 123.3 -166.1 97.1 -174.3 72.2C-182.5 47.3 -190.2 23.6 -198 0L0 0Z" fill="#e1685e"></path><path d="M0 99C-11.6 94.5 -23.2 90 -35.6 85.9C-48 81.9 -61.2 78.3 -70 70C-78.8 61.7 -83.1 48.6 -87.2 36.1C-91.2 23.6 -95.1 11.8 -99 0L0 0Z" fill="#fbae3c"></path></g><g transform="translate(0, 960)"><path d="M0 -297C41.9 -295.5 83.8 -294.1 113.7 -274.4C143.5 -254.7 161.5 -216.8 188.8 -188.8C216.1 -160.8 252.9 -142.7 272.5 -112.9C292.2 -83.1 294.6 -41.5 297 0L0 0Z" fill="#3d3056"></path><path d="M0 -198C27.9 -197 55.8 -196.1 75.8 -182.9C95.7 -169.8 107.6 -144.5 125.9 -125.9C144.1 -107.2 168.6 -95.1 181.7 -75.3C194.8 -55.4 196.4 -27.7 198 0L0 0Z" fill="#e1685e"></path><path d="M0 -99C14 -98.5 27.9 -98 37.9 -91.5C47.8 -84.9 53.8 -72.3 62.9 -62.9C72 -53.6 84.3 -47.6 90.8 -37.6C97.4 -27.7 98.2 -13.8 99 0L0 0Z" fill="#fbae3c"></path></g></svg>